<?xml version="1.0" encoding="UTF-8" standalone="no"?>
<svg width="1920px" height="200px" viewBox="0 0 1920 67" version="1.1" xmlns="http://www.w3.org/2000/svg" xmlns:xlink="http://www.w3.org/1999/xlink">
    <!-- Generator: Sketch 3.8.3 (29802) - http://www.bohemiancoding.com/sketch -->
    <title>Group 10</title>
    <desc>Created with Sketch.</desc>
    <defs></defs>
    <g id="v1" stroke="none" stroke-width="1" fill="none" fill-rule="evenodd">
        <g id="Dashboard---lock" transform="translate(0.000000, -971.000000)" stroke-width="2">
            <g id="Group-10" transform="translate(-40.000000, 972.000000)">
                <path d="M10,46.7910156 C10,46.7910156 859.091797,45.7519531 882.085938,45.7714844 C905.080078,45.7910156 902.244141,33.5410156 918.871094,33.5410156 C929.498047,33.5410156 935.160156,45.0703125 944.796875,45.4433594 C954.433594,45.8164062 953.597656,15.9121094 961.798828,15.9121094 C970,15.9121094 968.009766,61.1601562 983.751953,61.1601562 C999.494141,61.1601562 998.646484,-1.03138962e-16 1012.52148,0 C1026.39648,1.00554683e-16 1029.0625,50.2382812 1043.91211,50.2382812 C1058.76172,50.2382812 1051.43555,11.3320312 1067.17188,11.3320312 C1082.9082,11.3320312 1078.28711,47.0292969 1091.64062,47.0292969 C1104.99414,47.0292969 1105.03516,28.921875 1116.54102,28.921875 C1128.04688,28.921875 1146.17578,46.7910156 1158.96484,46.7910156 L2031.51562,46.7910156" id="Path-26" stroke="#F7D62D"></path>
                <path d="M0,36.5410156 C0,36.5410156 848.986328,35.7519531 871.980469,35.7714844 C894.974609,35.7910156 892.138672,36.5410156 908.765625,36.5410156 C919.392578,36.5410156 925.054688,48.0703125 934.691406,48.4433594 C944.328125,48.8164062 943.492188,18.9121094 951.693359,18.9121094 C959.894531,18.9121094 957.904297,64.1601562 973.646484,64.1601562 C989.388672,64.1601562 988.541016,3 1002.41602,3 C1016.29102,3 1018.95703,53.2382812 1033.80664,53.2382812 C1048.65625,53.2382812 1041.33008,14.3320312 1057.06641,14.3320312 C1072.80273,14.3320312 1068.18164,50.0292969 1081.53516,50.0292969 C1094.88867,50.0292969 1094.92969,31.921875 1106.43555,31.921875 L1163.71875,31.921875 L2022.26758,31.921875 L2003.33594,107.845703" id="Path-26" stroke="#FFFFFF" opacity="0.522038246"></path>
            </g>
        </g>
    </g>
</svg>
